<svg width="24" height="24" viewBox="0 0 24 24" fill="none" xmlns="http://www.w3.org/2000/svg">
<path d="M9.663 17H14.336M12 3V4M18.364 5.636L17.657 6.343M21 12H20M4 12H3M6.343 6.343L5.636 5.636M8.464 15.536C6.51176 13.5832 6.51204 10.4177 8.46462 8.46524C10.4172 6.51283 13.5828 6.51283 15.5354 8.46524C17.488 10.4177 17.4882 13.5832 15.536 15.536L14.988 16.083C14.3553 16.7158 13.9999 17.5741 14 18.469V19C14 20.1038 13.1038 21 12 21C10.8962 21 10 20.1038 10 19V18.469C10 17.574 9.644 16.715 9.012 16.083L8.464 15.536L9.663 17" stroke="#7C3AED" stroke-width="1.75" stroke-linecap="round" stroke-linejoin="round"/>
</svg>
